<?xml version="1.0" encoding="UTF-8"?>
<svg version="1.1" xmlns="http://www.w3.org/2000/svg" width="500" height="183">
<path d="M0 0 C8.58 0 17.16 0 26 0 C26 1.32 26 2.64 26 4 C27.32 4 28.64 4 30 4 C30 5.32 30 6.64 30 8 C32.31 8 34.62 8 37 8 C37 6.68 37 5.36 37 4 C38.32 3.67 39.64 3.34 41 3 C41 2.01 41 1.02 41 0 C45.62 0 50.24 0 55 0 C55 1.32 55 2.64 55 4 C57.64 4 60.28 4 63 4 C63 5.32 63 6.64 63 8 C64.32 8 65.64 8 67 8 C67 9.32 67 10.64 67 12 C68.65 12.33 70.3 12.66 72 13 C71.67 15.64 71.34 18.28 71 21 C72.65 21 74.3 21 76 21 C76 22.32 76 23.64 76 25 C78.64 25 81.28 25 84 25 C84 26.32 84 27.64 84 29 C85.32 29 86.64 29 88 29 C88 30.32 88 31.64 88 33 C89.32 33 90.64 33 92 33 C92 35.64 92 38.28 92 41 C93.32 41 94.64 41 96 41 C96 49.58 96 58.16 96 67 C94.68 67 93.36 67 92 67 C92.33 70.63 92.66 74.26 93 78 C93.99 78 94.98 78 96 78 C96 79.65 96 81.3 96 83 C97.32 83 98.64 83 100 83 C100 89.93 100 96.86 100 104 C98.68 104 97.36 104 96 104 C96 105.65 96 107.3 96 109 C94.68 109 93.36 109 92 109 C92 110.32 92 111.64 92 113 C90.68 113 89.36 113 88 113 C88 114.32 88 115.64 88 117 C85.36 117 82.72 117 80 117 C80 118.32 80 119.64 80 121 C77.03 121 74.06 121 71 121 C71.33 122.32 71.66 123.64 72 125 C69.03 125 66.06 125 63 125 C63 126.32 63 127.64 63 129 C43.53 129 24.06 129 4 129 C4 127.68 4 126.36 4 125 C1.36 125 -1.28 125 -4 125 C-4 123.68 -4 122.36 -4 121 C-5.32 121 -6.64 121 -8 121 C-8 119.68 -8 118.36 -8 117 C-10.97 117 -13.94 117 -17 117 C-17 116.01 -17 115.02 -17 114 C-19.64 113.67 -22.28 113.34 -25 113 C-25 111.68 -25 110.36 -25 109 C-26.32 109 -27.64 109 -29 109 C-29 107.35 -29 105.7 -29 104 C-30.485 104.495 -30.485 104.495 -32 105 C-33 104 -33 104 -33.09765625 102.15234375 C-33.06510417 100.1015625 -33.03255208 98.05078125 -33 96 C-34.32 96 -35.64 96 -37 96 C-37 93.36 -37 90.72 -37 88 C-38.32 88 -39.64 88 -41 88 C-41 79.42 -41 70.84 -41 62 C-39.68 62 -38.36 62 -37 62 C-37 59.36 -37 56.72 -37 54 C-35.68 54 -34.36 54 -33 54 C-32.67 52.35 -32.34 50.7 -32 49 C-31.01 49.33 -30.02 49.66 -29 50 C-29 48.35 -29 46.7 -29 45 C-27.68 45 -26.36 45 -25 45 C-25 42.36 -25 39.72 -25 37 C-23.68 37 -22.36 37 -21 37 C-21 34.36 -21 31.72 -21 29 C-19.68 28.67 -18.36 28.34 -17 28 C-17 25.69 -17 23.38 -17 21 C-15.35 21 -13.7 21 -12 21 C-12 18.03 -12 15.06 -12 12 C-10.68 12 -9.36 12 -8 12 C-8 10.68 -8 9.36 -8 8 C-6.68 8 -5.36 8 -4 8 C-4 6.68 -4 5.36 -4 4 C-2.68 4 -1.36 4 0 4 C0 2.68 0 1.36 0 0 Z " fill="#589A25" transform="translate(42,27)"/>
<path d="M0 0 C0.97328247 -0.00525696 1.94656494 -0.01051392 2.94934082 -0.01593018 C6.15202094 -0.02908442 9.35419998 -0.02040742 12.55688477 -0.01025391 C14.792161 -0.01227611 17.02743659 -0.01518878 19.26271057 -0.01895142 C23.94229426 -0.02336872 28.62170588 -0.01696328 33.30126953 -0.00292969 C39.28769621 0.01415173 45.27371905 0.0043236 51.26013088 -0.01364708 C55.87477131 -0.0245093 60.48931668 -0.02102718 65.10396004 -0.0132637 C67.31068024 -0.01126793 69.51740919 -0.013699 71.72411919 -0.02070236 C74.81370641 -0.02835574 77.90264811 -0.01665744 80.9921875 0 C82.3491851 -0.00910904 82.3491851 -0.00910904 83.7335968 -0.0184021 C92.48513259 0.06862322 98.83572354 2.47962383 105.29907227 8.48583984 C111.55402818 15.2400827 112.42189622 22.15620337 112.34204102 31.06005859 C111.72211321 38.3958709 108.29153191 44.27368139 103.06079102 49.38818359 C97.55820925 53.02698767 92.58650232 55.50058829 85.9198761 55.52862549 C85.10279678 55.53433563 84.28571747 55.54004578 83.44387817 55.54592896 C82.11210037 55.54760574 82.11210037 55.54760574 80.75341797 55.54931641 C79.81144058 55.55428131 78.8694632 55.55924622 77.89894104 55.56436157 C74.78231067 55.57896672 71.66573124 55.58578322 68.54907227 55.59130859 C66.37916564 55.59706233 64.20925902 55.60282003 62.03935242 55.60858154 C57.4873328 55.61908749 52.93533082 55.62493251 48.38330078 55.62841797 C42.56395266 55.63389538 36.74483937 55.65790919 30.92556477 55.68638992 C26.44129263 55.70505996 21.9570765 55.71022428 17.47276878 55.71175385 C15.32826647 55.7147721 13.18376494 55.72277256 11.03930092 55.73593903 C8.0310673 55.75308722 5.02340004 55.75109757 2.01513672 55.74462891 C1.13740601 55.75384369 0.25967529 55.76305847 -0.64465332 55.77255249 C-9.45035251 55.71355158 -16.68667962 53.58556167 -23.14624023 47.47412109 C-27.97270057 41.85902345 -31.19392922 34.87412833 -30.93920898 27.38818359 C-29.90789682 17.49696233 -26.62118951 11.48692105 -19.23217773 4.96630859 C-12.87277894 0.58948217 -7.5350472 -0.05046715 0 0 Z " fill="#04FCA3" transform="translate(379.939208984375,111.61181640625)"/>
<path d="M0 0 C15.18 0 30.36 0 46 0 C46 3.3 46 6.6 46 10 C49.63 10 53.26 10 57 10 C57 17.92 57 25.84 57 34 C53.37 34 49.74 34 46 34 C46 36.64 46 39.28 46 42 C49.63 42 53.26 42 57 42 C57 49.92 57 57.84 57 66 C48.75 66 40.5 66 32 66 C32 58.74 32 51.48 32 44 C29.69 44 27.38 44 25 44 C25 51.26 25 58.52 25 66 C16.75 66 8.5 66 0 66 C0 44.22 0 22.44 0 0 Z M25 13 C25 19.27 25 25.54 25 32 C27.31 32 29.62 32 32 32 C32 25.73 32 19.46 32 13 C29.69 13 27.38 13 25 13 Z " fill="#FFFFFF" transform="translate(210,36)"/>
<path d="M0 0 C11.55 0 23.1 0 35 0 C35 3.3 35 6.6 35 10 C38.63 10 42.26 10 46 10 C46 24.85 46 39.7 46 55 C42.37 55 38.74 55 35 55 C35 58.63 35 62.26 35 66 C23.45 66 11.9 66 0 66 C0 62.37 0 58.74 0 55 C-3.63 55 -7.26 55 -11 55 C-11 40.15 -11 25.3 -11 10 C-7.37 10 -3.74 10 0 10 C0 6.7 0 3.4 0 0 Z M14 13 C14 26.2 14 39.4 14 53 C16.31 53 18.62 53 21 53 C21 39.8 21 26.6 21 13 C18.69 13 16.38 13 14 13 Z " fill="#FFFFFF" transform="translate(298,36)"/>
<path d="M0 0 C15.18 0 30.36 0 46 0 C46 4.29 46 8.58 46 13 C35.44 13 24.88 13 14 13 C14 26.2 14 39.4 14 53 C16.31 53 18.62 53 21 53 C21 46.07 21 39.14 21 32 C29.25 32 37.5 32 46 32 C46 43.22 46 54.44 46 66 C41.38 66 36.76 66 32 66 C32 62.37 32 58.74 32 55 C29.69 55 27.38 55 25 55 C25 58.63 25 62.26 25 66 C16.75 66 8.5 66 0 66 C0 62.37 0 58.74 0 55 C-3.63 55 -7.26 55 -11 55 C-11 40.15 -11 25.3 -11 10 C-7.37 10 -3.74 10 0 10 C0 6.7 0 3.4 0 0 Z " fill="#FFFFFF" transform="translate(375,36)"/>
<path d="M0 0 C11.55 0 23.1 0 35 0 C35 4.29 35 8.58 35 13 C28.07 13 21.14 13 14 13 C14 15.64 14 18.28 14 21 C17.63 21 21.26 21 25 21 C25 24.63 25 28.26 25 32 C28.3 32 31.6 32 35 32 C35 39.59 35 47.18 35 55 C31.7 55 28.4 55 25 55 C25 58.63 25 62.26 25 66 C13.12 66 1.24 66 -11 66 C-11 61.71 -11 57.42 -11 53 C-4.07 53 2.86 53 10 53 C10 50.03 10 47.06 10 44 C6.7 44 3.4 44 0 44 C0 40.7 0 37.4 0 34 C-3.63 34 -7.26 34 -11 34 C-11 26.08 -11 18.16 -11 10 C-7.37 10 -3.74 10 0 10 C0 6.7 0 3.4 0 0 Z " fill="#FFFFFF" transform="translate(452,36)"/>
<path d="M0 0 C15.18 0 30.36 0 46 0 C46 4.29 46 8.58 46 13 C39.07 13 32.14 13 25 13 C25 15.64 25 18.28 25 21 C31.93 21 38.86 21 46 21 C46 25.29 46 29.58 46 34 C39.07 34 32.14 34 25 34 C25 44.56 25 55.12 25 66 C16.75 66 8.5 66 0 66 C0 44.22 0 22.44 0 0 Z " fill="#FFFFFF" transform="translate(143,36)"/>
<path d="M0 0 C4.62 0 9.24 0 14 0 C14 1.32 14 2.64 14 4 C16.64 4 19.28 4 22 4 C22 5.32 22 6.64 22 8 C23.32 8 24.64 8 26 8 C26 9.32 26 10.64 26 12 C27.65 12.33 29.3 12.66 31 13 C30.67 15.64 30.34 18.28 30 21 C31.65 21 33.3 21 35 21 C35 22.32 35 23.64 35 25 C37.64 25 40.28 25 43 25 C43 26.32 43 27.64 43 29 C44.32 29 45.64 29 47 29 C47 30.32 47 31.64 47 33 C48.32 33 49.64 33 51 33 C51 35.64 51 38.28 51 41 C49.68 41 48.36 41 47 41 C46.67 40.01 46.34 39.02 46 38 C35.11 37.67 24.22 37.34 13 37 C13 46.57 13 56.14 13 66 C12.01 66 11.02 66 10 66 C10 56.76 10 47.52 10 38 C-2.54 38 -15.08 38 -28 38 C-28 39.32 -28 40.64 -28 42 C-29.32 42 -30.64 42 -32 42 C-32 50.25 -32 58.5 -32 67 C-33.65 67 -35.3 67 -37 67 C-37 58.75 -37 50.5 -37 42 C-39.64 42 -42.28 42 -45 42 C-44.67 40.35 -44.34 38.7 -44 37 C-43.01 37 -42.02 37 -41 37 C-41 36.01 -41 35.02 -41 34 C-39.35 34 -37.7 34 -36 34 C-36 32.35 -36 30.7 -36 29 C-34.68 29 -33.36 29 -32 29 C-32 27.68 -32 26.36 -32 25 C-29.36 25 -26.72 25 -24 25 C-24 23.68 -24 22.36 -24 21 C-18.39 21 -12.78 21 -7 21 C-7 22.32 -7 23.64 -7 25 C-4.36 25 -1.72 25 1 25 C1 23.68 1 22.36 1 21 C-0.32 21 -1.64 21 -3 21 C-3 19.68 -3 18.36 -3 17 C-4.32 17 -5.64 17 -7 17 C-7 15.68 -7 14.36 -7 13 C-8.32 13 -9.64 13 -11 13 C-11 11.35 -11 9.7 -11 8 C-8.69 8 -6.38 8 -4 8 C-4 6.68 -4 5.36 -4 4 C-2.68 3.67 -1.36 3.34 0 3 C0 2.01 0 1.02 0 0 Z " fill="#1D520F" transform="translate(83,27)"/>
<path d="M0 0 C8.58 0 17.16 0 26 0 C26 1.32 26 2.64 26 4 C27.32 4 28.64 4 30 4 C30 5.32 30 6.64 30 8 C28.68 8 27.36 8 26 8 C26 7.01 26 6.02 26 5 C17.75 5 9.5 5 1 5 C1 6.32 1 7.64 1 9 C-0.32 9 -1.64 9 -3 9 C-3 10.32 -3 11.64 -3 13 C-4.65 13 -6.3 13 -8 13 C-8 18.61 -8 24.22 -8 30 C-9.32 30 -10.64 30 -12 30 C-12 32.64 -12 35.28 -12 38 C-14.64 38 -17.28 38 -20 38 C-20 40.64 -20 43.28 -20 46 C-21.32 46 -22.64 46 -24 46 C-24 47.32 -24 48.64 -24 50 C-25.32 50 -26.64 50 -28 50 C-28 51.32 -28 52.64 -28 54 C-29.32 54 -30.64 54 -32 54 C-32 56.97 -32 59.94 -32 63 C-33.32 63 -34.64 63 -36 63 C-36 70.92 -36 78.84 -36 87 C-34.68 87 -33.36 87 -32 87 C-32 89.64 -32 92.28 -32 95 C-30.68 95 -29.36 95 -28 95 C-28 97.97 -28 100.94 -28 104 C-26.68 104 -25.36 104 -24 104 C-24 105.32 -24 106.64 -24 108 C-21.36 108 -18.72 108 -16 108 C-16 109.32 -16 110.64 -16 112 C-13.36 112 -10.72 112 -8 112 C-8 113.32 -8 114.64 -8 116 C-6.68 116 -5.36 116 -4 116 C-4 114.68 -4 113.36 -4 112 C-1.03 112 1.94 112 5 112 C5 113.32 5 114.64 5 116 C6.32 116 7.64 116 9 116 C9 117.32 9 118.64 9 120 C25.17 120 41.34 120 58 120 C58.33 121.32 58.66 122.64 59 124 C60.98 124.495 60.98 124.495 63 125 C63 126.32 63 127.64 63 129 C43.53 129 24.06 129 4 129 C4 127.68 4 126.36 4 125 C1.36 125 -1.28 125 -4 125 C-4 123.68 -4 122.36 -4 121 C-5.32 121 -6.64 121 -8 121 C-8 119.68 -8 118.36 -8 117 C-10.97 117 -13.94 117 -17 117 C-17 116.01 -17 115.02 -17 114 C-19.64 113.67 -22.28 113.34 -25 113 C-25 111.68 -25 110.36 -25 109 C-26.32 109 -27.64 109 -29 109 C-29 107.35 -29 105.7 -29 104 C-30.485 104.495 -30.485 104.495 -32 105 C-33 104 -33 104 -33.09765625 102.15234375 C-33.06510417 100.1015625 -33.03255208 98.05078125 -33 96 C-34.32 96 -35.64 96 -37 96 C-37 93.36 -37 90.72 -37 88 C-38.32 88 -39.64 88 -41 88 C-41 79.42 -41 70.84 -41 62 C-39.68 62 -38.36 62 -37 62 C-37 59.36 -37 56.72 -37 54 C-35.68 54 -34.36 54 -33 54 C-32.67 52.35 -32.34 50.7 -32 49 C-31.01 49.33 -30.02 49.66 -29 50 C-29 48.35 -29 46.7 -29 45 C-27.68 45 -26.36 45 -25 45 C-25 42.36 -25 39.72 -25 37 C-23.68 37 -22.36 37 -21 37 C-21 34.36 -21 31.72 -21 29 C-19.68 28.67 -18.36 28.34 -17 28 C-17 25.69 -17 23.38 -17 21 C-15.35 21 -13.7 21 -12 21 C-12 18.03 -12 15.06 -12 12 C-10.68 12 -9.36 12 -8 12 C-8 10.68 -8 9.36 -8 8 C-6.68 8 -5.36 8 -4 8 C-4 6.68 -4 5.36 -4 4 C-2.68 4 -1.36 4 0 4 C0 2.68 0 1.36 0 0 Z " fill="#030F02" transform="translate(42,27)"/>
<path d="M0 0 C0.99 0 1.98 0 3 0 C3.495 3.465 3.495 3.465 4 7 C5.32 7.33 6.64 7.66 8 8 C8 11.96 8 15.92 8 20 C2.39 20 -3.22 20 -9 20 C-9 21.32 -9 22.64 -9 24 C-33.42 24 -57.84 24 -83 24 C-83 22.68 -83 21.36 -83 20 C-85.97 20 -88.94 20 -92 20 C-92 18.68 -92 17.36 -92 16 C-94.64 16 -97.28 16 -100 16 C-100 11.71 -100 7.42 -100 3 C-94.39 3 -88.78 3 -83 3 C-83 4.32 -83 5.64 -83 7 C-77.72 7 -72.44 7 -67 7 C-67 8.65 -67 10.3 -67 12 C-50.5 12 -34 12 -17 12 C-17 10.35 -17 8.7 -17 7 C-10.73 7 -4.46 7 2 7 C2 5.02 2 3.04 2 1 C1.01 0.505 1.01 0.505 0 0 Z " fill="#A8CC8B" transform="translate(134,111)"/>
<path d="M0 0 C12.21 0 24.42 0 37 0 C37 9.57 37 19.14 37 29 C35.68 29 34.36 29 33 29 C33 30.32 33 31.64 33 33 C22.11 33 11.22 33 0 33 C0 31.68 0 30.36 0 29 C-1.32 29 -2.64 29 -4 29 C-4 20.75 -4 12.5 -4 4 C-2.68 4 -1.36 4 0 4 C0 2.68 0 1.36 0 0 Z " fill="#F8F9F9" transform="translate(55,65)"/>
<path d="M0 0 C10.89 0 21.78 0 33 0 C33 0.99 33 1.98 33 3 C35.64 3 38.28 3 41 3 C41 11.58 41 20.16 41 29 C38.03 29 35.06 29 32 29 C32 29.99 32 30.98 32 32 C22.76 32 13.52 32 4 32 C4 30.68 4 29.36 4 28 C2.68 28 1.36 28 0 28 C0 18.76 0 9.52 0 0 Z " fill="#F3F5F7" transform="translate(97,65)"/>
<path d="M0 0 C2.64 0 5.28 0 8 0 C8 2.64 8 5.28 8 8 C6.68 8 5.36 8 4 8 C4 9.32 4 10.64 4 12 C2.68 12 1.36 12 0 12 C0 13.32 0 14.64 0 16 C-1.32 16 -2.64 16 -4 16 C-4 18.97 -4 21.94 -4 25 C-5.32 25 -6.64 25 -8 25 C-8 32.92 -8 40.84 -8 49 C-6.68 49 -5.36 49 -4 49 C-4 51.97 -4 54.94 -4 58 C-2.68 58 -1.36 58 0 58 C0 59.32 0 60.64 0 62 C1.32 62 2.64 62 4 62 C4 63.32 4 64.64 4 66 C6.64 66 9.28 66 12 66 C12 67.32 12 68.64 12 70 C13.32 70 14.64 70 16 70 C16 72.64 16 75.28 16 78 C14.68 78 13.36 78 12 78 C12 76.68 12 75.36 12 74 C9.36 74 6.72 74 4 74 C4 72.68 4 71.36 4 70 C1.36 70 -1.28 70 -4 70 C-4 68.68 -4 67.36 -4 66 C-5.32 66 -6.64 66 -8 66 C-8 63.03 -8 60.06 -8 57 C-9.32 57 -10.64 57 -12 57 C-12 54.36 -12 51.72 -12 49 C-13.32 49 -14.64 49 -16 49 C-16 41.08 -16 33.16 -16 25 C-14.68 25 -13.36 25 -12 25 C-12 22.03 -12 19.06 -12 16 C-10.68 16 -9.36 16 -8 16 C-8 14.68 -8 13.36 -8 12 C-6.68 12 -5.36 12 -4 12 C-4 10.68 -4 9.36 -4 8 C-2.68 8 -1.36 8 0 8 C0 5.36 0 2.72 0 0 Z " fill="#2E8118" transform="translate(22,65)"/>
<path d="M0 0 C2.97 0 5.94 0 9 0 C9 1.32 9 2.64 9 4 C10.32 4 11.64 4 13 4 C13 5.32 13 6.64 13 8 C29.17 8 45.34 8 62 8 C62.495 9.98 62.495 9.98 63 12 C64.32 12.33 65.64 12.66 67 13 C67 14.32 67 15.64 67 17 C47.53 17 28.06 17 8 17 C8 14.36 8 11.72 8 9 C5.69 9 3.38 9 1 9 C0.67 6.03 0.34 3.06 0 0 Z " fill="#1C6F13" transform="translate(38,139)"/>
<path d="M0 0 C4.95 0 9.9 0 15 0 C15 1.32 15 2.64 15 4 C14.34 4 13.68 4 13 4 C13 4.66 13 5.32 13 6 C17.95 6 22.9 6 28 6 C28 6.33 28 6.66 28 7 C22.72 7 17.44 7 12 7 C12 5.68 12 4.36 12 3 C9.36 3.33 6.72 3.66 4 4 C3.67 5.32 3.34 6.64 3 8 C5.97 8 8.94 8 12 8 C12 9.32 12 10.64 12 12 C17.28 12 22.56 12 28 12 C28 13.32 28 14.64 28 16 C47.14 16 66.28 16 86 16 C86 14.68 86 13.36 86 12 C92.93 12 99.86 12 107 12 C107 13.32 107 14.64 107 16 C101.39 16 95.78 16 90 16 C90 17.32 90 18.64 90 20 C65.58 20 41.16 20 16 20 C16 18.68 16 17.36 16 16 C13.36 16 10.72 16 8 16 C8 14.35 8 12.7 8 11 C5.36 11 2.72 11 0 11 C0 7.37 0 3.74 0 0 Z " fill="#B3D598" transform="translate(35,115)"/>
<path d="M0 0 C1.32 0 2.64 0 4 0 C4 1.32 4 2.64 4 4 C6.97 4 9.94 4 13 4 C13 5.32 13 6.64 13 8 C14.32 8 15.64 8 17 8 C17 10.64 17 13.28 17 16 C15.68 16 14.36 16 13 16 C13 17.32 13 18.64 13 20 C11.68 20 10.36 20 9 20 C9 21.32 9 22.64 9 24 C10.32 24 11.64 24 13 24 C13 23.01 13 22.02 13 21 C16.9813783 19.6728739 20.85045227 19.93084087 25 20 C25 21.32 25 22.64 25 24 C27.97 24 30.94 24 34 24 C34 25.65 34 27.3 34 29 C25.42 29 16.84 29 8 29 C8 27.68 8 26.36 8 25 C6.68 25 5.36 25 4 25 C4 25.99 4 26.98 4 28 C3.01 28 2.02 28 1 28 C0.67 27.01 0.34 26.02 0 25 C-1.32 24.67 -2.64 24.34 -4 24 C-4 17.4 -4 10.8 -4 4 C-2.68 4 -1.36 4 0 4 C0 2.68 0 1.36 0 0 Z " fill="#5BA025" transform="translate(92,32)"/>
<path d="M0 0 C3.07469523 1.70251719 5.40613254 3.81226508 7 7 C7.08426094 8.6674606 7.10725143 10.33825187 7.09765625 12.0078125 C7.09443359 12.99394531 7.09121094 13.98007813 7.08789062 14.99609375 C7.07951172 16.02863281 7.07113281 17.06117188 7.0625 18.125 C7.05798828 19.16527344 7.05347656 20.20554688 7.04882812 21.27734375 C7.03701952 23.85161962 7.02055075 26.42578146 7 29 C5.02 29 3.04 29 1 29 C1 27.02 1 25.04 1 23 C-2.96 23 -6.92 23 -11 23 C-11 24.98 -11 26.96 -11 29 C-12.65 29 -14.3 29 -16 29 C-16.14560195 25.27124612 -16.23417043 21.54322566 -16.3125 17.8125 C-16.35439453 16.75740234 -16.39628906 15.70230469 -16.43945312 14.61523438 C-16.56355118 6.74741779 -16.56355118 6.74741779 -13.60546875 2.82421875 C-9.09635904 -0.33283408 -5.44335035 -0.84024871 0 0 Z " fill="#000503" transform="translate(436,125)"/>
<path d="M0 0 C2.536875 -0.061875 5.07375 -0.12375 7.6875 -0.1875 C8.47729248 -0.21481201 9.26708496 -0.24212402 10.08081055 -0.27026367 C15.70273234 -0.33637048 18.76523977 0.91936117 22.8125 4.6875 C24.56601869 8.10224693 24.64878342 11.29266615 24 15 C21.90333729 19.0435638 20.23415988 21.34315483 16 23 C13.640625 23.1953125 13.640625 23.1953125 11.25 23.125 C10.45078125 23.10695312 9.6515625 23.08890625 8.828125 23.0703125 C8.22484375 23.04710937 7.6215625 23.02390625 7 23 C7 24.98 7 26.96 7 29 C4.69 29 2.38 29 0 29 C0 19.43 0 9.86 0 0 Z " fill="#000E09" transform="translate(369,125)"/>
<path d="M0 0 C2.475 0.495 2.475 0.495 5 1 C5 1.99 5 2.98 5 4 C5.99 4 6.98 4 8 4 C8 3.01 8 2.02 8 1 C9.32 1 10.64 1 12 1 C12 2.32 12 3.64 12 5 C20.58 5 29.16 5 38 5 C38 3.35 38 1.7 38 0 C39.32 0 40.64 0 42 0 C42 1.32 42 2.64 42 4 C43.32 4 44.64 4 46 4 C46 6.64 46 9.28 46 12 C44.68 12 43.36 12 42 12 C41.505 10.515 41.505 10.515 41 9 C30.11 8.67 19.22 8.34 8 8 C8 17.57 8 27.14 8 37 C7.01 37 6.02 37 5 37 C4.67 27.76 4.34 18.52 4 9 C-14.315 8.505 -14.315 8.505 -33 8 C-33 7.01 -33 6.02 -33 5 C-22.11 5 -11.22 5 0 5 C0 3.35 0 1.7 0 0 Z " fill="#000200" transform="translate(88,56)"/>
<path d="M0 0 C3.96 0 7.92 0 12 0 C12 1.32 12 2.64 12 4 C13.32 4 14.64 4 16 4 C16 7.96 16 11.92 16 16 C14.68 16 13.36 16 12 16 C12 17.65 12 19.3 12 21 C7.71 21 3.42 21 -1 21 C-1 19.68 -1 18.36 -1 17 C-2.32 17 -3.64 17 -5 17 C-5 12.71 -5 8.42 -5 4 C-3.68 4 -2.36 4 -1 4 C-1 5.32 -1 6.64 -1 8 C0.65 8 2.3 8 4 8 C4 6.68 4 5.36 4 4 C2.68 4 1.36 4 0 4 C0 2.68 0 1.36 0 0 Z " fill="#0C0C0C" transform="translate(72,73)"/>
<path d="M0 0 C8.58 0 17.16 0 26 0 C26 1.32 26 2.64 26 4 C27.32 4 28.64 4 30 4 C30 5.32 30 6.64 30 8 C28.68 8 27.36 8 26 8 C26 7.01 26 6.02 26 5 C17.75 5 9.5 5 1 5 C1 6.32 1 7.64 1 9 C-0.32 9 -1.64 9 -3 9 C-3 10.32 -3 11.64 -3 13 C-4.65 13 -6.3 13 -8 13 C-8 18.61 -8 24.22 -8 30 C-9.32 30 -10.64 30 -12 30 C-12 32.64 -12 35.28 -12 38 C-13.32 38 -14.64 38 -16 38 C-16.33 32.39 -16.66 26.78 -17 21 C-15.35 21 -13.7 21 -12 21 C-12 18.03 -12 15.06 -12 12 C-10.68 12 -9.36 12 -8 12 C-8 10.68 -8 9.36 -8 8 C-6.68 8 -5.36 8 -4 8 C-4 6.68 -4 5.36 -4 4 C-2.68 4 -1.36 4 0 4 C0 2.68 0 1.36 0 0 Z " fill="#060D03" transform="translate(42,27)"/>
<path d="M0 0 C1.98 0 3.96 0 6 0 C6.07347656 1.15628906 6.07347656 1.15628906 6.1484375 2.3359375 C6.22320312 3.33882812 6.29796875 4.34171875 6.375 5.375 C6.44460938 6.37273437 6.51421875 7.37046875 6.5859375 8.3984375 C6.76363964 11.15508879 6.76363964 11.15508879 9 13 C12.56592619 12.83582968 12.56592619 12.83582968 16 12 C17.21693876 9.56612247 17.31959896 7.58161154 17.5625 4.875 C17.64628906 3.96492187 17.73007812 3.05484375 17.81640625 2.1171875 C17.90728516 1.06917969 17.90728516 1.06917969 18 0 C19.98 0 21.96 0 24 0 C24.68826474 11.81521135 24.68826474 11.81521135 22.25 15.625 C20 18 20 18 17.90625 18.859375 C15.77881467 19.83601466 15.77881467 19.83601466 15.390625 22.1640625 C15.32101562 23.38222656 15.32101562 23.38222656 15.25 24.625 C15.19328125 25.44226563 15.1365625 26.25953125 15.078125 27.1015625 C15.05234375 27.72804687 15.0265625 28.35453125 15 29 C13.02 29 11.04 29 9 29 C9 26.03 9 23.06 9 20 C8.2575 19.79375 7.515 19.5875 6.75 19.375 C2.90531005 17.45265502 1.82473066 15.91979179 0 12 C-0.3233447 7.97615487 -0.234582 4.02699104 0 0 Z " fill="#000704" transform="translate(446,125)"/>
<path d="M0 0 C2.64 0 5.28 0 8 0 C8 1.32 8 2.64 8 4 C9.65 4 11.3 4 13 4 C13 8.29 13 12.58 13 17 C11.68 17 10.36 17 9 17 C9 18.32 9 19.64 9 21 C6.03 21 3.06 21 0 21 C0 19.35 0 17.7 0 16 C-1.32 16 -2.64 16 -4 16 C-4 12.04 -4 8.08 -4 4 C-2.68 4 -1.36 4 0 4 C0 2.68 0 1.36 0 0 Z " fill="#1E1E1E" transform="translate(117,73)"/>
<path d="M0 0 C4.29 0 8.58 0 13 0 C13 0.99 13 1.98 13 3 C25.21 3 37.42 3 50 3 C50 3.33 50 3.66 50 4 C37.79 4 25.58 4 13 4 C13 5.32 13 6.64 13 8 C11.68 8 10.36 8 9 8 C9 16.25 9 24.5 9 33 C7.35 33 5.7 33 4 33 C4 24.75 4 16.5 4 8 C1.36 8 -1.28 8 -4 8 C-3.67 6.35 -3.34 4.7 -3 3 C-2.01 3 -1.02 3 0 3 C0 2.01 0 1.02 0 0 Z " fill="#2C561D" transform="translate(42,61)"/>
<path d="M0 0 C4.62 0 9.24 0 14 0 C14 1.32 14 2.64 14 4 C16.64 4 19.28 4 22 4 C22 5.32 22 6.64 22 8 C23.32 8 24.64 8 26 8 C26 9.32 26 10.64 26 12 C28.475 12.495 28.475 12.495 31 13 C30.67 15.64 30.34 18.28 30 21 C31.65 21 33.3 21 35 21 C35 22.32 35 23.64 35 25 C37.64 25 40.28 25 43 25 C43 26.32 43 27.64 43 29 C40.03 29 37.06 29 34 29 C34 27.68 34 26.36 34 25 C30.04 25.33 26.08 25.66 22 26 C22 26.99 22 27.98 22 29 C20.68 29 19.36 29 18 29 C18 27.68 18 26.36 18 25 C19.32 25 20.64 25 22 25 C22 23.68 22 22.36 22 21 C23.32 21 24.64 21 26 21 C26 18.36 26 15.72 26 13 C24.68 13 23.36 13 22 13 C22 11.68 22 10.36 22 9 C19.03 9 16.06 9 13 9 C13 7.35 13 5.7 13 4 C9.04 4 5.08 4 1 4 C0.67 2.68 0.34 1.36 0 0 Z " fill="#010200" transform="translate(83,27)"/>
<path d="M0 0 C1.98 0 3.96 0 6 0 C6 7.59 6 15.18 6 23 C10.95 23 15.9 23 21 23 C21 24.98 21 26.96 21 29 C14.07 29 7.14 29 0 29 C0 19.43 0 9.86 0 0 Z " fill="#000704" transform="translate(396,125)"/>
<path d="M0 0 C19.47 0 38.94 0 59 0 C59 1.32 59 2.64 59 4 C39.53 4 20.06 4 0 4 C0 2.68 0 1.36 0 0 Z " fill="#000000" transform="translate(46,152)"/>
<path d="M0 0 C19.14 0 38.28 0 58 0 C58 1.32 58 2.64 58 4 C38.86 4 19.72 4 0 4 C0 2.68 0 1.36 0 0 Z " fill="#0A0B09" transform="translate(63,127)"/>
<path d="M0 0 C5.61 0 11.22 0 17 0 C15.68 0.33 14.36 0.66 13 1 C13 2.32 13 3.64 13 5 C11.68 5 10.36 5 9 5 C9 8.96 9 12.92 9 17 C6.36 17 3.72 17 1 17 C1 15.68 1 14.36 1 13 C-0.32 13 -1.64 13 -3 13 C-3 11.68 -3 10.36 -3 9 C-4.32 9 -5.64 9 -7 9 C-7 7.35 -7 5.7 -7 4 C-4.69 4 -2.38 4 0 4 C0 2.68 0 1.36 0 0 Z " fill="#166410" transform="translate(79,31)"/>
<path d="M0 0 C6.93 0 13.86 0 21 0 C21 1.32 21 2.64 21 4 C15.39 4 9.78 4 4 4 C4 5.32 4 6.64 4 8 C-20.42 8 -44.84 8 -70 8 C-70 7.67 -70 7.34 -70 7 C-46.9 7 -23.8 7 0 7 C0 4.69 0 2.38 0 0 Z " fill="#ACCD91" transform="translate(121,127)"/>
<path d="M0 0 C1.32 0 2.64 0 4 0 C4 3.96 4 7.92 4 12 C2.68 12 1.36 12 0 12 C0 10.68 0 9.36 0 8 C-9.9 8 -19.8 8 -30 8 C-30 6.68 -30 5.36 -30 4 C-20.1 4 -10.2 4 0 4 C0 2.68 0 1.36 0 0 Z " fill="#020401" transform="translate(130,94)"/>
<path d="M0 0 C2.64 0 5.28 0 8 0 C8 1.32 8 2.64 8 4 C6.68 4 5.36 4 4 4 C4 5.32 4 6.64 4 8 C2.35 8 0.7 8 -1 8 C-1 10.64 -1 13.28 -1 16 C-2.32 16 -3.64 16 -5 16 C-5 18.64 -5 21.28 -5 24 C-6.32 24 -7.64 24 -9 24 C-9 18.72 -9 13.44 -9 8 C-7.35 8 -5.7 8 -4 8 C-4 6.68 -4 5.36 -4 4 C-2.68 4 -1.36 4 0 4 C0 2.68 0 1.36 0 0 Z " fill="#2F8419" transform="translate(43,32)"/>
<path d="M0 0 C3.96 0 7.92 0 12 0 C12 0.99 12 1.98 12 3 C16.29 3 20.58 3 25 3 C25 4.32 25 5.64 25 7 C15.43 7 5.86 7 -4 7 C-4 5.68 -4 4.36 -4 3 C-2.68 3 -1.36 3 0 3 C0 2.01 0 1.02 0 0 Z " fill="#549722" transform="translate(63,53)"/>
<path d="M0 0 C4.95 0 9.9 0 15 0 C15 1.32 15 2.64 15 4 C14.34 4 13.68 4 13 4 C13 4.66 13 5.32 13 6 C17.95 6 22.9 6 28 6 C28 6.33 28 6.66 28 7 C22.72 7 17.44 7 12 7 C12 5.68 12 4.36 12 3 C9.36 3.33 6.72 3.66 4 4 C3.67 5.32 3.34 6.64 3 8 C5.97 8 8.94 8 12 8 C12 9.32 12 10.64 12 12 C17.28 12 22.56 12 28 12 C27.67 13.32 27.34 14.64 27 16 C27 15.01 27 14.02 27 13 C21.06 13.33 15.12 13.66 9 14 C8.67 13.34 8.34 12.68 8 12 C6.10466658 11.53476937 6.10466658 11.53476937 3.9375 11.375 C2.638125 11.25125 1.33875 11.1275 0 11 C0 7.37 0 3.74 0 0 Z " fill="#B9DB9D" transform="translate(35,115)"/>
<path d="M0 0 C10.89 0 21.78 0 33 0 C33 1.32 33 2.64 33 4 C22.11 4 11.22 4 0 4 C0 2.68 0 1.36 0 0 Z " fill="#020401" transform="translate(55,98)"/>
<path d="M0 0 C1.32 0 2.64 0 4 0 C4 1.65 4 3.3 4 5 C2.68 5 1.36 5 0 5 C0 6.32 0 7.64 0 9 C-1.32 9 -2.64 9 -4 9 C-4 10.32 -4 11.64 -4 13 C-6.64 13 -9.28 13 -12 13 C-12 14.32 -12 15.64 -12 17 C-14.97 17 -17.94 17 -21 17 C-21 15.35 -21 13.7 -21 12 C-18.36 12 -15.72 12 -13 12 C-13 10.68 -13 9.36 -13 8 C-10.03 8 -7.06 8 -4 8 C-4 6.68 -4 5.36 -4 4 C-2.68 4 -1.36 4 0 4 C0 2.68 0 1.36 0 0 Z " fill="#0C1406" transform="translate(134,131)"/>
<path d="M0 0 C2.64 0 5.28 0 8 0 C8 1.32 8 2.64 8 4 C13.28 4 18.56 4 24 4 C24 5.65 24 7.3 24 9 C18.72 9 13.44 9 8 9 C8 7.68 8 6.36 8 5 C5.03 5 2.06 5 -1 5 C-0.67 3.35 -0.34 1.7 0 0 Z " fill="#0E100C" transform="translate(39,118)"/>
<path d="M0 0 C0 1.32 0 2.64 0 4 C2.64 4 5.28 4 8 4 C8 5.32 8 6.64 8 8 C1.4 8 -5.2 8 -12 8 C-12 5.69 -12 3.38 -12 1 C-8.0186217 -0.3271261 -4.14954773 -0.06915913 0 0 Z " fill="#57A028" transform="translate(117,52)"/>
<path d="M0 0 C3.0625 0.3125 3.0625 0.3125 4.9375 1.3125 C6.76738947 4.56563684 6.24378355 7.62640109 6.0625 11.3125 C2.4325 11.3125 -1.1975 11.3125 -4.9375 11.3125 C-5.1328125 4.4765625 -5.1328125 4.4765625 -4.9375 2.3125 C-2.9375 0.3125 -2.9375 0.3125 0 0 Z " fill="#04FAA2" transform="translate(430.9375,130.6875)"/>
<path d="M0 0 C2.97 0 5.94 0 9 0 C9 2.97 9 5.94 9 9 C7.68 9 6.36 9 5 9 C5 11.64 5 14.28 5 17 C3.68 17 2.36 17 1 17 C0.67 11.39 0.34 5.78 0 0 Z " fill="#187012" transform="translate(25,48)"/>
<path d="M0 0 C7.38804781 -0.36334661 7.38804781 -0.36334661 10 1.1875 C11.36703913 3.66525842 11.41826612 5.21155919 11 8 C10 9.8125 10 9.8125 8 11 C5.28125957 11.24667073 2.74116148 11.13481122 0 11 C0 7.37 0 3.74 0 0 Z " fill="#04FBA2" transform="translate(376,131)"/>
<path d="M0 0 C0 1.65 0 3.3 0 5 C1.32 5 2.64 5 4 5 C4 7.97 4 10.94 4 14 C2.35 13.67 0.7 13.34 -1 13 C-1 10.69 -1 8.38 -1 6 C-2.35618499 7.12534105 -2.35618499 7.12534105 -2.0625 10.0625 C-2.041875 11.031875 -2.02125 12.00125 -2 13 C-2.99 13 -3.98 13 -5 13 C-5 10.69 -5 8.38 -5 6 C-5.99 6 -6.98 6 -8 6 C-8 4.35 -8 2.7 -8 1 C-5.23735711 0.40267181 -2.83967231 0 0 0 Z " fill="#71B73A" transform="translate(138,105)"/>
<path d="M0 0 C1.32 0 2.64 0 4 0 C4 2.64 4 5.28 4 8 C12.25 8 20.5 8 29 8 C28.67 9.32 28.34 10.64 28 12 C28 11.01 28 10.02 28 9 C21.73 9 15.46 9 9 9 C9 9.99 9 10.98 9 12 C10.32 12 11.64 12 13 12 C13 13.32 13 14.64 13 16 C11.35 16 9.7 16 8 16 C8 14.68 8 13.36 8 12 C6.68 12 5.36 12 4 12 C3.67 11.34 3.34 10.68 3 10 C2.01 10.66 1.02 11.32 0 12 C0 8.04 0 4.08 0 0 Z " fill="#47921F" transform="translate(96,94)"/>
<path d="M0 0 C1.32 0 2.64 0 4 0 C4 8.58 4 17.16 4 26 C2.68 26 1.36 26 0 26 C0 17.42 0 8.84 0 0 Z " fill="#000000" transform="translate(1,89)"/>
<path d="M0 0 C1.32 0 2.64 0 4 0 C4 8.58 4 17.16 4 26 C2.68 26 1.36 26 0 26 C0 17.42 0 8.84 0 0 Z " fill="#000000" transform="translate(134,68)"/>
<path d="M0 0 C8.25 0 16.5 0 25 0 C25 1.32 25 2.64 25 4 C16.75 4 8.5 4 0 4 C0 2.68 0 1.36 0 0 Z " fill="#38861B" transform="translate(63,110)"/>
<path d="M0 0 C1.32 0 2.64 0 4 0 C4 7.92 4 15.84 4 24 C2.68 24 1.36 24 0 24 C0 16.08 0 8.16 0 0 Z " fill="#1D7B14" transform="translate(6,90)"/>
<path d="M0 0 C1.32 0 2.64 0 4 0 C4 7.59 4 15.18 4 23 C2.68 23 1.36 23 0 23 C0 15.41 0 7.82 0 0 Z " fill="#D1E8F8" transform="translate(51,69)"/>
<path d="M0 0 C4.62 0 9.24 0 14 0 C14 1.32 14 2.64 14 4 C16.64 4 19.28 4 22 4 C22 5.32 22 6.64 22 8 C19.36 8 16.72 8 14 8 C13.67 7.01 13.34 6.02 13 5 C9.04 4.67 5.08 4.34 1 4 C0.67 2.68 0.34 1.36 0 0 Z " fill="#000000" transform="translate(83,27)"/>
<path d="M0 0 C6.93 0 13.86 0 21 0 C21 1.32 21 2.64 21 4 C14.07 4 7.14 4 0 4 C0 2.68 0 1.36 0 0 Z " fill="#10120E" transform="translate(121,123)"/>
<path d="M0 0 C2.64 0 5.28 0 8 0 C8 0.99 8 1.98 8 3 C20.21 3 32.42 3 45 3 C45 3.33 45 3.66 45 4 C32.79 4 20.58 4 8 4 C8 4.99 8 5.98 8 7 C6.68 7 5.36 7 4 7 C4 6.01 4 5.02 4 4 C2.68 4 1.36 4 0 4 C0 2.68 0 1.36 0 0 Z " fill="#3D5D31" transform="translate(47,61)"/>
<path d="M0 0 C1.65 0 3.3 0 5 0 C5 1.65 5 3.3 5 5 C3.68 5 2.36 5 1 5 C1 7.64 1 10.28 1 13 C-0.32 13 -1.64 13 -3 13 C-3 11.68 -3 10.36 -3 9 C-4.32 9 -5.64 9 -7 9 C-7 7.35 -7 5.7 -7 4 C-4.69 4 -2.38 4 0 4 C0 2.68 0 1.36 0 0 Z " fill="#020601" transform="translate(79,31)"/>
<path d="M0 0 C0.33 0.66 0.66 1.32 1 2 C2.3921875 1.7525 2.3921875 1.7525 3.8125 1.5 C8.85733621 0.76299718 13.91435711 0.91723185 19 1 C19.33 2.65 19.66 4.3 20 6 C16.04 6 12.08 6 8 6 C8 5.34 8 4.68 8 4 C5.36 4 2.72 4 0 4 C0 2.68 0 1.36 0 0 Z " fill="#ADCF92" transform="translate(43,127)"/>
<path d="M0 0 C2.97 0 5.94 0 9 0 C9 1.32 9 2.64 9 4 C7.68 4 6.36 4 5 4 C5 5.32 5 6.64 5 8 C2.03 8 -0.94 8 -4 8 C-4 6.68 -4 5.36 -4 4 C-2.68 4 -1.36 4 0 4 C0 2.68 0 1.36 0 0 Z " fill="#81D047" transform="translate(125,131)"/>
<path d="M0 0 C0.99 0 1.98 0 3 0 C3 7.92 3 15.84 3 24 C2.01 24 1.02 24 0 24 C0 16.08 0 8.16 0 0 Z " fill="#000000" transform="translate(47,69)"/>
<path d="M0 0 C0.33 1.32 0.66 2.64 1 4 C2.32 4 3.64 4 5 4 C5 5.32 5 6.64 5 8 C11.6 8 18.2 8 25 8 C25.33 6.68 25.66 5.36 26 4 C26 5.65 26 7.3 26 9 C17.42 9 8.84 9 0 9 C0 7.68 0 6.36 0 5 C-1.32 5 -2.64 5 -4 5 C-4 5.99 -4 6.98 -4 8 C-4.99 8 -5.98 8 -7 8 C-7.33 6.68 -7.66 5.36 -8 4 C-5.36 4 -2.72 4 0 4 C0 2.68 0 1.36 0 0 Z " fill="#266415" transform="translate(100,52)"/>
<path d="M0 0 C5.61 0 11.22 0 17 0 C17 1.32 17 2.64 17 4 C11.39 4 5.78 4 0 4 C0 2.68 0 1.36 0 0 Z " fill="#050A02" transform="translate(59,48)"/>
<path d="M0 0 C5.28 0 10.56 0 16 0 C16 1.32 16 2.64 16 4 C10.72 4 5.44 4 0 4 C0 2.68 0 1.36 0 0 Z " fill="#84D446" transform="translate(51,32)"/>
<path d="M0 0 C2.64 0 5.28 0 8 0 C8 1.32 8 2.64 8 4 C13.28 4 18.56 4 24 4 C24 4.33 24 4.66 24 5 C15.75 5 7.5 5 -1 5 C-0.67 3.35 -0.34 1.7 0 0 Z " fill="#647556" transform="translate(39,118)"/>
<path d="M0 0 C1.32 0 2.64 0 4 0 C4 2.64 4 5.28 4 8 C0.04 8 -3.92 8 -8 8 C-8 7.01 -8 6.02 -8 5 C-5.36 5 -2.72 5 0 5 C0 3.35 0 1.7 0 0 Z " fill="#000100" transform="translate(84,48)"/>
<path d="M0 0 C3.96 0 7.92 0 12 0 C12 0.99 12 1.98 12 3 C2.76 3 -6.48 3 -16 3 C-16 2.67 -16 2.34 -16 2 C-10.72 2 -5.44 2 0 2 C0 1.34 0 0.68 0 0 Z " fill="#64B227" transform="translate(76,57)"/>
<path d="M0 0 C1.32 0 2.64 0 4 0 C4 1.32 4 2.64 4 4 C5.32 4 6.64 4 8 4 C8 5.32 8 6.64 8 8 C5.36 8 2.72 8 0 8 C0 5.36 0 2.72 0 0 Z " fill="#39861B" transform="translate(18,123)"/>
<path d="M0 0 C3.96 0 7.92 0 12 0 C12 1.32 12 2.64 12 4 C8.04 4 4.08 4 0 4 C0 2.68 0 1.36 0 0 Z " fill="#37861B" transform="translate(109,110)"/>
<path d="M0 0 C10.89 0 21.78 0 33 0 C33 0.33 33 0.66 33 1 C30.36 1 27.72 1 25 1 C24.67 1.99 24.34 2.98 24 4 C24 3.01 24 2.02 24 1 C20.04 1 16.08 1 12 1 C12 1.99 12 2.98 12 4 C10.68 4 9.36 4 8 4 C8 3.01 8 2.02 8 1 C5.36 1 2.72 1 0 1 C0 0.67 0 0.34 0 0 Z " fill="#255A12" transform="translate(51,52)"/>
<path d="M0 0 C1.32 0 2.64 0 4 0 C4 1.32 4 2.64 4 4 C5.32 4 6.64 4 8 4 C8 5.32 8 6.64 8 8 C5.36 8 2.72 8 0 8 C0 5.36 0 2.72 0 0 Z " fill="#77C23B" transform="translate(76,44)"/>
<path d="M0 0 C1.65 0 3.3 0 5 0 C5 1.32 5 2.64 5 4 C3.68 4 2.36 4 1 4 C1 5.32 1 6.64 1 8 C-0.65 8 -2.3 8 -4 8 C-3.67 6.35 -3.34 4.7 -3 3 C-2.01 3 -1.02 3 0 3 C0 2.01 0 1.02 0 0 Z " fill="#102307" transform="translate(42,61)"/>
<path d="M0 0 C1.32 0 2.64 0 4 0 C4 1.65 4 3.3 4 5 C2.68 5 1.36 5 0 5 C0 6.32 0 7.64 0 9 C-1.65 9 -3.3 9 -5 9 C-4.67 7.35 -4.34 5.7 -4 4 C-2.68 4 -1.36 4 0 4 C0 2.68 0 1.36 0 0 Z " fill="#010201" transform="translate(134,131)"/>
<path d="M0 0 C1.65 0 3.3 0 5 0 C5 2.64 5 5.28 5 8 C3.35 7.67 1.7 7.34 0 7 C0 4.69 0 2.38 0 0 Z " fill="#000000" transform="translate(25,48)"/>
<path d="M0 0 C2.97 0 5.94 0 9 0 C9 1.32 9 2.64 9 4 C6.03 4 3.06 4 0 4 C0 2.68 0 1.36 0 0 Z " fill="#000000" transform="translate(113,144)"/>
<path d="M0 0 C2.97 0 5.94 0 9 0 C9 1.32 9 2.64 9 4 C6.03 4 3.06 4 0 4 C0 2.68 0 1.36 0 0 Z " fill="#3A871B" transform="translate(38,139)"/>
<path d="M0 0 C2.64 0 5.28 0 8 0 C8 1.32 8 2.64 8 4 C6.68 4 5.36 4 4 4 C3.67 5.32 3.34 6.64 3 8 C3 6.68 3 5.36 3 4 C2.01 4 1.02 4 0 4 C0 2.68 0 1.36 0 0 Z " fill="#64A92E" transform="translate(126,131)"/>
<path d="M0 0 C1.32 0 2.64 0 4 0 C4 2.97 4 5.94 4 9 C2.68 9 1.36 9 0 9 C0 6.03 0 3.06 0 0 Z " fill="#070707" transform="translate(138,110)"/>
<path d="M0 0 C1.32 0 2.64 0 4 0 C4 2.97 4 5.94 4 9 C2.68 9 1.36 9 0 9 C0 6.03 0 3.06 0 0 Z " fill="#3B881B" transform="translate(14,81)"/>
<path d="M0 0 C1.32 0 2.64 0 4 0 C4 2.97 4 5.94 4 9 C2.68 9 1.36 9 0 9 C0 6.03 0 3.06 0 0 Z " fill="#000000" transform="translate(30,39)"/>
<path d="M0 0 C2.64 0 5.28 0 8 0 C8.33 1.32 8.66 2.64 9 4 C6.03 4 3.06 4 0 4 C0 2.68 0 1.36 0 0 Z " fill="#000000" transform="translate(105,148)"/>
<path d="M0 0 C1.32 0 2.64 0 4 0 C4 2.64 4 5.28 4 8 C3.01 8.33 2.02 8.66 1 9 C0 8 0 8 -0.09765625 6.15234375 C-0.06510417 4.1015625 -0.03255208 2.05078125 0 0 Z " fill="#000000" transform="translate(9,123)"/>
<path d="M0 0 C1.32 0 2.64 0 4 0 C4 1.32 4 2.64 4 4 C-2.93 4 -9.86 4 -17 4 C-17 3.67 -17 3.34 -17 3 C-11.39 3 -5.78 3 0 3 C0 2.01 0 1.02 0 0 Z " fill="#7D8774" transform="translate(138,119)"/>
<path d="M0 0 C2.64 0 5.28 0 8 0 C8 1.32 8 2.64 8 4 C5.03 4 2.06 4 -1 4 C-0.67 2.68 -0.34 1.36 0 0 Z " fill="#000000" transform="translate(118,52)"/>
<path d="M0 0 C2.64 0 5.28 0 8 0 C8 1.32 8 2.64 8 4 C5.36 4 2.72 4 0 4 C0 2.68 0 1.36 0 0 Z " fill="#1C7B14" transform="translate(39,143)"/>
<path d="M0 0 C2.64 0 5.28 0 8 0 C8 1.32 8 2.64 8 4 C5.36 4 2.72 4 0 4 C0 2.68 0 1.36 0 0 Z " fill="#83D246" transform="translate(105,143)"/>
<path d="M0 0 C2.64 0 5.28 0 8 0 C8 1.32 8 2.64 8 4 C5.36 4 2.72 4 0 4 C0 2.68 0 1.36 0 0 Z " fill="#84D547" transform="translate(113,139)"/>
<path d="M0 0 C2.64 0 5.28 0 8 0 C8 1.32 8 2.64 8 4 C5.36 4 2.72 4 0 4 C0 2.68 0 1.36 0 0 Z " fill="#187613" transform="translate(18,131)"/>
<path d="M0 0 C2.64 0 5.28 0 8 0 C8 1.32 8 2.64 8 4 C5.36 4 2.72 4 0 4 C0 2.68 0 1.36 0 0 Z " fill="#38861A" transform="translate(26,131)"/>
<path d="M0 0 C1.65 0 3.3 0 5 0 C5 1.32 5 2.64 5 4 C-0.61 4 -6.22 4 -12 4 C-12 3.67 -12 3.34 -12 3 C-8.04 3 -4.08 3 0 3 C0 2.01 0 1.02 0 0 Z " fill="#96A789" transform="translate(137,127)"/>
<path d="M0 0 C1.32 0 2.64 0 4 0 C4 2.64 4 5.28 4 8 C2.68 8 1.36 8 0 8 C0 5.36 0 2.72 0 0 Z " fill="#1A7713" transform="translate(14,123)"/>
<path d="M0 0 C1.32 0 2.64 0 4 0 C4 2.64 4 5.28 4 8 C2.68 8 1.36 8 0 8 C0 5.36 0 2.72 0 0 Z " fill="#000000" transform="translate(5,115)"/>
<path d="M0 0 C1.32 0 2.64 0 4 0 C3.67 2.64 3.34 5.28 3 8 C2.34 8 1.68 8 1 8 C0.67 9.32 0.34 10.64 0 12 C0 8.04 0 4.08 0 0 Z " fill="#25510F" transform="translate(96,94)"/>
<path d="M0 0 C1.32 0 2.64 0 4 0 C4 2.64 4 5.28 4 8 C2.68 8 1.36 8 0 8 C0 5.36 0 2.72 0 0 Z " fill="#000000" transform="translate(5,81)"/>
<path d="M0 0 C1.32 0 2.64 0 4 0 C4 2.64 4 5.28 4 8 C2.68 8 1.36 8 0 8 C0 5.36 0 2.72 0 0 Z " fill="#39871B" transform="translate(26,65)"/>
<path d="M0 0 C1.32 0 2.64 0 4 0 C4 2.64 4 5.28 4 8 C2.68 8 1.36 8 0 8 C0 5.36 0 2.72 0 0 Z " fill="#197713" transform="translate(22,65)"/>
<path d="M0 0 C1.32 0 2.64 0 4 0 C4 2.64 4 5.28 4 8 C2.68 8 1.36 8 0 8 C0 5.36 0 2.72 0 0 Z " fill="#38861B" transform="translate(30,57)"/>
<path d="M0 0 C1.32 0 2.64 0 4 0 C4 2.64 4 5.28 4 8 C2.68 8 1.36 8 0 8 C0 5.36 0 2.72 0 0 Z " fill="#177412" transform="translate(88,48)"/>
<path d="M0 0 C1.32 0 2.64 0 4 0 C4 2.64 4 5.28 4 8 C2.68 8 1.36 8 0 8 C0 5.36 0 2.72 0 0 Z " fill="#35841A" transform="translate(34,48)"/>
<path d="M0 0 C1.32 0 2.64 0 4 0 C4 2.64 4 5.28 4 8 C2.68 8 1.36 8 0 8 C0 5.36 0 2.72 0 0 Z " fill="#81CD46" transform="translate(105,40)"/>
<path d="M0 0 C1.32 0 2.64 0 4 0 C4 2.64 4 5.28 4 8 C2.68 8 1.36 8 0 8 C0 5.36 0 2.72 0 0 Z " fill="#166F12" transform="translate(34,40)"/>
<path d="M0 0 C2.64 0 5.28 0 8 0 C8 1.32 8 2.64 8 4 C5.36 4 2.72 4 0 4 C0 2.68 0 1.36 0 0 Z " fill="#84D347" transform="translate(96,36)"/>
<path d="M0 0 C0.33 0.99 0.66 1.98 1 3 C4.96 3 8.92 3 13 3 C13 4.65 13 6.3 13 8 C11.68 8 10.36 8 9 8 C9 6.68 9 5.36 9 4 C6.03 4 3.06 4 0 4 C0 2.68 0 1.36 0 0 Z " fill="#121D0A" transform="translate(96,32)"/>
<path d="M0 0 C0.99 0 1.98 0 3 0 C3 2.64 3 5.28 3 8 C1.68 8 0.36 8 -1 8 C-1.04241723 5.66705225 -1.04092937 3.33297433 -1 1 C-0.67 0.67 -0.34 0.34 0 0 Z " fill="#1C7B15" transform="translate(11,114)"/>
<path d="M0 0 C1.65 0 3.3 0 5 0 C5 1.65 5 3.3 5 5 C3.35 5 1.7 5 0 5 C0 3.35 0 1.7 0 0 Z " fill="#031103" transform="translate(34,143)"/>
<path d="M0 0 C4.95 0 9.9 0 15 0 C15 0.99 15 1.98 15 3 C14.01 3 13.02 3 12 3 C12 2.34 12 1.68 12 1 C8.37 1 4.74 1 1 1 C0.67 1.99 0.34 2.98 0 4 C0 2.68 0 1.36 0 0 Z " fill="#C9EFAA" transform="translate(122,127)"/>
<path d="M0 0 C0.33 1.32 0.66 2.64 1 4 C2.32 4 3.64 4 5 4 C5 5.32 5 6.64 5 8 C3.35 8 1.7 8 0 8 C0 5.36 0 2.72 0 0 Z " fill="#C3C3C3" transform="translate(71,73)"/>
<path d="M0 0 C2.64 0 5.28 0 8 0 C8 0.99 8 1.98 8 3 C5.36 3 2.72 3 0 3 C0 2.01 0 1.02 0 0 Z " fill="#90E54D" transform="translate(117,57)"/>
<path d="M0 0 C2.64 0 5.28 0 8 0 C8 0.99 8 1.98 8 3 C5.36 3 2.72 3 0 3 C0 2.01 0 1.02 0 0 Z " fill="#000000" transform="translate(51,53)"/>
<path d="M0 0 C2.31 0 4.62 0 7 0 C7 0.99 7 1.98 7 3 C4.69 3 2.38 3 0 3 C0 2.01 0 1.02 0 0 Z " fill="#000000" transform="translate(39,119)"/>
<path d="M0 0 C1.32 0 2.64 0 4 0 C4 0.99 4 1.98 4 3 C5.32 3.33 6.64 3.66 8 4 C5.36 4 2.72 4 0 4 C0 2.68 0 1.36 0 0 Z " fill="#518626" transform="translate(47,65)"/>
<path d="M0 0 C2.64 0 5.28 0 8 0 C6.68 0.33 5.36 0.66 4 1 C4 1.99 4 2.98 4 4 C2.68 4 1.36 4 0 4 C0 2.68 0 1.36 0 0 Z " fill="#092105" transform="translate(101,52)"/>
<path d="M0 0 C0.99 0 1.98 0 3 0 C3 1.65 3 3.3 3 5 C1.68 5 0.36 5 -1 5 C-0.67 3.35 -0.34 1.7 0 0 Z " fill="#000000" transform="translate(135,105)"/>
</svg>
